<?xml version="1.0" encoding="UTF-8"?>
<svg id="Layer_1" xmlns="http://www.w3.org/2000/svg" version="1.1" viewBox="0 0 128 128">
  <!-- Generator: Adobe Illustrator 29.1.0, SVG Export Plug-In . SVG Version: 2.1.0 Build 142)  -->
  <defs>
    <style>
      .st0 {
        fill: #fff;
      }
    </style>
  </defs>
  <circle class="st0" cx="64" cy="64" r="64"/>
  <path d="M50.2,12.2c.2.4.3.9.5,1.3.5,1.1,1,2.8,1.4,4,.8,2.1,1.6,4.2,2.4,6.3s.6,1.1.8,1.4.1.9.3,1.3.7,1,.8,1.3c.2.5.3,1.3.5,1.7s.3.3.4.6,0,.7.2.8c.9,1.5,1.6,3.6,2.4,5.3s1.2,2.9,1.9,4,.2.1.3.3c.1.3,0,.6.2.9s.3.2.4.5c.4.8.8,1.8,1.1,2.5s.5,1.7,1.2,1.3c.2-.4.2-1,.5-1.5.6-1.3.7-2.4,1.2-3.7,1.1-3,2.7-5.8,4-8.8s1.3-4.1,2.2-5.9.3-.2.4-.4.1-.6.2-.8c1.1-2.3,2.3-4.8,3.3-7.1s.1-.7.4-1c.3,0,.4,1.1.4,1.3.2,2.3,0,4.5.2,6.9.7,7,0,14.4.7,21.6.4.4.1.9.2,1.4.2.8.9.7,1.6.6.9-.3,1.6-.3,2.7-.3,8.8,0,17.6.1,26.5,0,.6,0,1.3-.3,1.9,0,0,.2,0,.2-.1.2-.4.2-1,.2-1.4.4s-.7.6-.9.8-.6.2-.9.3c-2.7,1.6-5.6,3.2-8.5,4.6s-6.3,2.8-9.5,4.1-3.1,1.3-4.7,2-2.6,1-3.5,1.3-1.5.4-1.6.7c-.3,1,1,1.2,1.7,1.4,1.1.4,2.1.7,3.2,1.2s1.2.4,1.7.6c1.1.5,2.3,1.1,3.4,1.5s1.3.3,2.1.6c2.5,1.1,5.1,2.1,7.6,3.1s1.1.3,1.8.6c1.7.7,3.3,1.4,4.9,2.2s2.7,1.3,4,1.9,1,.3,1.5.5.4,0,.3.3c-.4.5-4.3.3-5.1.3-1.3,0-2.6.2-3.8.2-7.1.2-14.5.2-21.7.2-1.1.2-2.2,0-3.3,0s-1.7.1-2,.2-.5.4-.5.5c-.1.2,0,1.6,0,1.9,0,1.2,0,3,0,4.1s.5.5,0,1v14.4s.2.3.2.3c0,4.6,0,9.2,0,13.8s.6,3.3.2,3.7l-.7-.5c-.2-.3,0-.8-.2-1.1s-.1,0-.2-.1c-.6-1.6-1.1-3.3-1.7-4.9s-.3-1-.5-1.3c-.6-1.2-.8-2.6-1.3-3.9s-1-2.8-1.5-4.2c-.8-2.3-1.5-4.6-2.3-6.9s-1.1-3.4-1.6-5.1-.5-.9-.6-1.4c-.3-1.3-.6-2.5-1.2-3.7s-.2-1.4-.4-2.1-.2,0-.2-.2c-.2-.9-.4-2.3-1-3s-.5-.4-.7-.4c-.4,0-.4,1-.5,1.3-.4,1.1-1,2.3-1.5,3.3-1,1.9-1.7,3.9-2.7,5.8-1.8,3.5-3.3,7.2-5,10.8s-1.8,3.8-2.6,5.7-.2,1.1-.4,1.4-.3.1-.3.3c-.2.2-.2.8-.4,1.1s-.4.4-.5.6h-.3c-.2-.4-.1-3.8-.1-4.5,0-4.7,0-9.5,0-14.2s0-4.4.1-6.7.3-3.3.3-5.1-.2-.7-.6-1-.4,0-.5-.3v.2c-2.5.1-4.9,0-7.3,0-4.5,0-8.9.3-13.4.3s-5.4-.3-7.5,0,0,.2-.3.2c-.6,0-1.5,0-2.2,0s-.8.2-1.3,0c-.1-.5.3-.4.7-.6,1.4-.6,2.8-1.3,4.2-1.9s4-1.8,6-2.6,2.1-.9,3.2-1.4.8,0,1.1-.2.2-.2.2-.3c1.1-.5,2.4-.9,3.5-1.3,2.6-1,5.3-2,7.9-3s3.4-1.1,4.9-1.9.9-.1,1.4-.3.6-.7.5-1.1-1.2-.6-1.5-.7c-1.1-.5-2.3-1.1-3.4-1.6-2.8-1.2-5.5-2.6-8.3-3.8-4.8-2.1-9.4-4.6-14.1-6.9l-.7-.7c.2-.3.6-.3.9-.2s0,.3.3.2,0-.2.2-.2c.4,0,1.6,0,2,0s.1.2.2.2c.6.2,1-.2,1.3-.2,1.3-.2,2.9,0,4.2,0s1.7-.3,2.4-.3c1.7,0,3.8.1,5.5,0s0-.2.3-.2c2.9-.4,6.9,0,10,0s.4,0,.6-.1c.5,0,1.1.2,1.4-.2s.1-.5.2-.8.2,0,.2-.2c0-.4,0-1.8,0-2.2s-.2,0-.2-.3c-.1-1,0-2.3,0-3.3s-.2-.8-.3-1.2,0-1.1,0-1.4c-.1-.5-.1-.6-.2-1.3-.2-3.1-.1-6.2-.5-9.2s-.2,0-.2-.3c-.1-1,0-2.4,0-3.4,0-4,0-8.1-.2-12s-.2-2.1.4-1.7.4,1.1.5,1.3Z"/>
</svg>