<svg xmlns="http://www.w3.org/2000/svg" version="1.1" xmlns:xlink="http://www.w3.org/1999/xlink" xmlns:svgjs="http://svgjs.dev/svgjs" width="216" height="216"><svg id="SvgjsSvg1007" xmlns="http://www.w3.org/2000/svg" version="1.1" viewBox="0 0 216 216">
  <!-- Generator: Adobe Illustrator 29.2.1, SVG Export Plug-In . SVG Version: 2.1.0 Build 116)  -->
  <path d="M83,15c3,6.9,5.6,17.8,9.3,23.6.2,1.5,1.1,3.6,2,4.7.4,1.4.7,3.2,1.6,4.2.2.5,0,1.3.4,1.5,2.7,4.4,6.1,15.3,8.3,17.4,0,1.1.4,1.7,1.1,2.5,1.3,1.6,2,7.7,4.2,6.9,3.2-11.7,10.7-25.1,14.3-36.1,1.6-3.3.5-.4.7-.7,1.5-4.8,4.5-9.6,6.4-14.3,1.8-4.2.2-1.3.7-1.8,2.8,17.3.7,36,2.4,54.1,1,2.1-.6,4.4,3.3,3.6,18.5-1.4,37.7,0,56.4-.5-16.5,9.7-38.6,19.3-56.4,26.1-.5,1.8,1.8,2.2,3.1,2.5,2.6.8,6.6,2.6,8.9,3.3,14.5,6.1,29.6,11,43.2,18,2.1,1.1,3.7.7,3.3,1.5-4,1.3-11.8.2-16.2.9-15.9.7-33.1-.2-49,.7-1.7.6-.7,3-.9,4.4,0,2.2,0,5.4,0,7.4s.9.9,0,1.8v26.1l.4.5c0,7.9-.3,25.8.4,31.8-1.8-1-1.2-1.3-1.6-2.9-1.6-2.2-3.1-9.1-4.4-11.4-5.3-16.1-12.1-33.7-16.2-49.6-.4-1.3-.4,0-.4-.4-.4-1.7-1.1-6.4-3.1-6.2-6.8,16-17.3,36.8-23.6,51.9-.4.9-.8,2.5-1.6,3.1h-.5c-.4-17.4-.5-39,.5-55.4,0-3.3-.4-1.3-1.1-1.8s-.7,0-.9-.5v.4c-19.1.1-44,.4-58.1.9-.2-.9.5-.7,1.3-1.1,6.3-2.8,11.5-5.3,18.5-8.2,4.1-1.4,5.2-2.9,7.8-2.9.5-.4.4-.4.4-.5,10-3.5,23-9.2,32.1-11.8,2.5-1.5,0-3.1-1.8-3.3-15.9-7.9-33.2-14.1-48.1-23.6.4-.5,1.1-.5,1.6-.4s0,.5.5.4,0-.4.4-.4c.6.2,4.1-.4,4,.4,8.2-.8,16.3-.7,24.3-.9,2.3-1.2,12.9-.4,18.7-.4,5.6,0,.7,0,1.1-.2,1.7.3,3.1,0,2.9-1.8.7-.5.2-3.3.4-4.4-.9-1.5-.2-4.5-.4-6.5-1.6-7.9-.8-15.9-1.8-23.8-.7-5.4-.4,0-.4-.5-.1-9.2.2-18.8-.4-28-.4-7.1-.4-3.8.7-3.1,1.4,1,.4,2.2,1.3,2.7Z"></path>
</svg><style>@media (prefers-color-scheme: light) { :root { filter: none; } }
@media (prefers-color-scheme: dark) { :root { filter: invert(100%); } }
</style></svg>